<svg xmlns="http://www.w3.org/2000/svg" viewBox="0 0 160 220" role="img" aria-hidden="true">
  <path d="M48 105 68 105 62 210 48 194 32 208Z" fill="#1f5fbf"/>
  <path d="M72 105 92 105 86 212 80 198 70 212Z" fill="#f8fafc"/>
  <path d="M92 105 112 105 128 208 112 194 98 210Z" fill="#c91f32"/>
  <path d="M48 105 68 105 65 162 41 179Z" fill="#174887" opacity=".38"/>
  <path d="M92 105 112 105 119 168 100 184Z" fill="#851826" opacity=".36"/>
  <path d="M80 8 91 35 116 19 112 49 143 48 120 69 148 84 117 91 130 120 101 108 96 139 80 113 64 139 59 108 30 120 43 91 12 84 40 69 17 48 48 49 44 19 69 35Z" fill="#1f5fbf"/>
  <path d="M80 19 88 41 109 30 105 53 129 55 110 71 132 84 107 88 119 111 95 102 91 127 80 106 69 127 65 102 41 111 53 88 28 84 50 71 31 55 55 53 51 30 72 41Z" fill="#c91f32"/>
  <circle cx="80" cy="74" r="48" fill="#f8fafc" stroke="#e2e8f0" stroke-width="4"/>
  <circle cx="80" cy="74" r="36" fill="#1f5fbf"/>
  <path d="M58 56a36 36 0 0 1 44 0v36a36 36 0 0 1-44 0Z" fill="#c91f32"/>
  <path d="M70 42h20v64H70Z" fill="#f8fafc"/>
  <circle cx="80" cy="74" r="17" fill="#f8fafc" opacity=".92"/>
  <circle cx="80" cy="74" r="50" fill="none" stroke="#0f172a" stroke-opacity=".18" stroke-width="2"/>
  <path d="M42 123c18 16 58 20 77 0" fill="none" stroke="#0f172a" stroke-opacity=".14" stroke-width="5" stroke-linecap="round"/>
</svg>
