<svg xmlns="http://www.w3.org/2000/svg" viewBox="0 0 140 200" role="img" aria-hidden="true">
  <path d="M44 88h22l-7 101-13-15-17 16Z" fill="#f2c230"/>
  <path d="M74 88h22l15 102-17-16-13 15Z" fill="#f2c230"/>
  <path d="M44 88h22l-4 55-24 23Z" fill="#9f7414" opacity=".32"/>
  <path d="M70 8 79 32 101 18 98 44 124 45 105 63 129 77 102 82 113 108 88 99 84 127 70 104 56 127 52 99 27 108 38 82 11 77 35 63 16 45 42 44 39 18 61 32Z" fill="#f2c230"/>
  <path d="M70 23 77 39 93 31 91 49 109 51 95 63 112 74 93 77 101 94 84 88 81 107 70 91 59 107 56 88 39 94 47 77 28 74 45 63 31 51 49 49 47 31 63 39Z" fill="#ffe07a"/>
  <circle cx="70" cy="68" r="38" fill="#f6cc3d"/>
  <circle cx="70" cy="68" r="25" fill="#fff7cc" opacity=".96"/>
  <circle cx="70" cy="68" r="14" fill="#d99a16"/>
  <circle cx="70" cy="68" r="40" fill="none" stroke="#0f172a" stroke-opacity=".2" stroke-width="2"/>
</svg>
